%TF.GenerationSoftware,Altium Limited,Altium Designer,23.2.1 (34)*%
G04 Layer_Color=8388736*
%FSLAX45Y45*%
%MOMM*%
%TF.SameCoordinates,7D16A08E-AD26-414A-B05A-F9FA4662990C*%
%TF.FilePolarity,Negative*%
%TF.FileFunction,Soldermask,Top*%
%TF.Part,Single*%
G01*
G75*
%TA.AperFunction,ComponentPad*%
%ADD17C,1.85320*%
%ADD18R,1.85320X1.85320*%
%TA.AperFunction,ViaPad*%
%ADD19C,2.70320*%
%ADD20C,0.80320*%
%TA.AperFunction,SMDPad,CuDef*%
%ADD25R,1.20320X1.20320*%
%ADD26R,0.50320X1.40320*%
G36*
X3511330Y3602975D02*
X3512636Y3602715D01*
X3513897Y3602287D01*
X3515092Y3601698D01*
X3516199Y3600958D01*
X3517200Y3600080D01*
X3518078Y3599078D01*
X3518818Y3597971D01*
X3519407Y3596776D01*
X3519835Y3595515D01*
X3520095Y3594209D01*
X3520182Y3592880D01*
Y3352880D01*
X3520095Y3351551D01*
X3519835Y3350245D01*
X3519407Y3348984D01*
X3518818Y3347789D01*
X3518078Y3346682D01*
X3517200Y3345680D01*
X3516199Y3344802D01*
X3515092Y3344062D01*
X3513897Y3343473D01*
X3512636Y3343045D01*
X3511330Y3342785D01*
X3510001Y3342698D01*
X3270001D01*
X3268672Y3342785D01*
X3267365Y3343045D01*
X3266104Y3343473D01*
X3264910Y3344062D01*
X3263802Y3344802D01*
X3262801Y3345680D01*
X3261923Y3346682D01*
X3261183Y3347789D01*
X3260594Y3348984D01*
X3260166Y3350245D01*
X3259906Y3351551D01*
X3259819Y3352880D01*
Y3512880D01*
X3259906Y3514209D01*
X3260166Y3515515D01*
X3260594Y3516776D01*
X3261183Y3517971D01*
X3261923Y3519078D01*
X3262801Y3520080D01*
X3263802Y3520958D01*
X3264910Y3521698D01*
X3266104Y3522287D01*
X3267365Y3522715D01*
X3268672Y3522975D01*
X3270001Y3523062D01*
X3339819D01*
Y3592880D01*
X3339906Y3594209D01*
X3340166Y3595515D01*
X3340594Y3596776D01*
X3341183Y3597971D01*
X3341923Y3599078D01*
X3342801Y3600080D01*
X3343802Y3600958D01*
X3344910Y3601698D01*
X3346104Y3602287D01*
X3347365Y3602715D01*
X3348672Y3602975D01*
X3350001Y3603062D01*
X3510001D01*
X3511330Y3602975D01*
D02*
G37*
G36*
X6051330D02*
X6052636Y3602715D01*
X6053897Y3602287D01*
X6055092Y3601698D01*
X6056199Y3600958D01*
X6057200Y3600080D01*
X6058079Y3599078D01*
X6058818Y3597971D01*
X6059408Y3596776D01*
X6059836Y3595515D01*
X6060096Y3594209D01*
X6060183Y3592880D01*
Y3523062D01*
X6130001D01*
X6131330Y3522975D01*
X6132636Y3522715D01*
X6133897Y3522287D01*
X6135092Y3521698D01*
X6136199Y3520958D01*
X6137201Y3520080D01*
X6138079Y3519078D01*
X6138819Y3517971D01*
X6139408Y3516776D01*
X6139836Y3515515D01*
X6140096Y3514209D01*
X6140183Y3512880D01*
Y3352880D01*
X6140096Y3351551D01*
X6139836Y3350245D01*
X6139408Y3348984D01*
X6138819Y3347789D01*
X6138079Y3346682D01*
X6137201Y3345680D01*
X6136199Y3344802D01*
X6135092Y3344062D01*
X6133897Y3343473D01*
X6132636Y3343045D01*
X6131330Y3342785D01*
X6130001Y3342698D01*
X5890001D01*
X5888672Y3342785D01*
X5887366Y3343045D01*
X5886105Y3343473D01*
X5884910Y3344062D01*
X5883803Y3344802D01*
X5882801Y3345680D01*
X5881923Y3346682D01*
X5881183Y3347789D01*
X5880594Y3348984D01*
X5880166Y3350245D01*
X5879906Y3351551D01*
X5879819Y3352880D01*
Y3592880D01*
X5879906Y3594209D01*
X5880166Y3595515D01*
X5880594Y3596776D01*
X5881183Y3597971D01*
X5881923Y3599078D01*
X5882801Y3600080D01*
X5883803Y3600958D01*
X5884910Y3601698D01*
X5886105Y3602287D01*
X5887366Y3602715D01*
X5888672Y3602975D01*
X5890001Y3603062D01*
X6050001D01*
X6051330Y3602975D01*
D02*
G37*
D17*
X6097006Y6332382D02*
D03*
X5843006D02*
D03*
X6097006Y6078382D02*
D03*
X5843006D02*
D03*
X5335006Y6332382D02*
D03*
Y6078382D02*
D03*
X4827006Y6332382D02*
D03*
Y6078382D02*
D03*
X4065006Y6332382D02*
D03*
Y6078382D02*
D03*
X3811006Y6332382D02*
D03*
Y6078382D02*
D03*
X3303006Y6332382D02*
D03*
X3557006Y6078382D02*
D03*
Y6332382D02*
D03*
X4319006Y6078382D02*
D03*
Y6332382D02*
D03*
X4573006Y6078382D02*
D03*
Y6332382D02*
D03*
X5081006Y6078382D02*
D03*
Y6332382D02*
D03*
X5589006Y6078382D02*
D03*
Y6332382D02*
D03*
X6097001Y5232374D02*
D03*
X5843001D02*
D03*
X6097001Y4978374D02*
D03*
X5843001D02*
D03*
X5335001Y5232374D02*
D03*
Y4978374D02*
D03*
X4827001Y5232374D02*
D03*
Y4978374D02*
D03*
X4065001Y5232374D02*
D03*
Y4978374D02*
D03*
X3811001Y5232374D02*
D03*
Y4978374D02*
D03*
X3303001Y5232374D02*
D03*
X3557001Y4978374D02*
D03*
Y5232374D02*
D03*
X4319001Y4978374D02*
D03*
Y5232374D02*
D03*
X4573001Y4978374D02*
D03*
Y5232374D02*
D03*
X5081001Y4978374D02*
D03*
Y5232374D02*
D03*
X5589001Y4978374D02*
D03*
Y5232374D02*
D03*
D18*
X3303006Y6078382D02*
D03*
X3303001Y4978374D02*
D03*
D19*
X2750000Y7000000D02*
D03*
X6750000D02*
D03*
Y2750000D02*
D03*
X2750000D02*
D03*
D20*
X5415001Y4442480D02*
D03*
X4790000Y4250000D02*
D03*
X4961231Y3954150D02*
D03*
X5140000Y4600000D02*
D03*
X4950000Y4540000D02*
D03*
X4110001Y4265380D02*
D03*
X4160001Y4635380D02*
D03*
X4500001Y3905380D02*
D03*
X4560001Y4035380D02*
D03*
X5067645Y4089282D02*
D03*
X4950001Y3435380D02*
D03*
X4886600Y3538240D02*
D03*
X4701901Y3543320D02*
D03*
X4810001Y3435380D02*
D03*
X5798673Y3988080D02*
D03*
X5970001Y3925380D02*
D03*
X4620656Y3906540D02*
D03*
X5902681Y3738900D02*
D03*
X3685261Y3368060D02*
D03*
X5869661Y5798840D02*
D03*
X5529301Y3581420D02*
D03*
X5599999Y3474740D02*
D03*
X5219421Y4770140D02*
D03*
X4528541Y3543762D02*
D03*
X5536921Y4193083D02*
D03*
D25*
X5999998Y3467882D02*
D03*
X3399999D02*
D03*
D26*
X5799999Y3742878D02*
D03*
X5750001D02*
D03*
X5699999D02*
D03*
X5650002D02*
D03*
X5599999D02*
D03*
X5550002D02*
D03*
X5499999D02*
D03*
X5450002D02*
D03*
X5400000D02*
D03*
X5350002D02*
D03*
X5300000D02*
D03*
X5250002D02*
D03*
X5200000D02*
D03*
X5150003D02*
D03*
X5100000D02*
D03*
X5050003D02*
D03*
X5000000D02*
D03*
X4950003D02*
D03*
X4900001D02*
D03*
X4850003D02*
D03*
X4800001D02*
D03*
X4749998D02*
D03*
X4700001D02*
D03*
X4649999D02*
D03*
X4600001D02*
D03*
X4549999D02*
D03*
X4500001D02*
D03*
X4449999D02*
D03*
X4400002D02*
D03*
X4349999D02*
D03*
X4300002D02*
D03*
X4249999D02*
D03*
X4200002D02*
D03*
X4150000D02*
D03*
X4100002D02*
D03*
X4050000D02*
D03*
X4000002D02*
D03*
X3950000D02*
D03*
X3900003D02*
D03*
X3850000D02*
D03*
X3800003D02*
D03*
X3750000D02*
D03*
X3700003D02*
D03*
X3650001D02*
D03*
X3600003D02*
D03*
%TF.MD5,a9eb096a95fce66d2f7f32b4ea6d2ad4*%
M02*
