%TF.GenerationSoftware,Altium Limited,Altium Designer,23.2.1 (34)*%
G04 Layer_Color=255*
%FSLAX45Y45*%
%MOMM*%
%TF.SameCoordinates,7D16A08E-AD26-414A-B05A-F9FA4662990C*%
%TF.FilePolarity,Positive*%
%TF.FileFunction,Pads,Top*%
%TF.Part,Single*%
G01*
G75*
%TA.AperFunction,SMDPad,CuDef*%
%ADD10R,1.00000X1.00000*%
%ADD11R,0.30000X1.20000*%
%TA.AperFunction,ComponentPad*%
%ADD13C,1.65000*%
%ADD14R,1.65000X1.65000*%
%TA.AperFunction,ViaPad*%
%ADD15C,2.50000*%
D10*
X5999998Y3467882D02*
D03*
X3399999D02*
D03*
D11*
X5799999Y3742878D02*
D03*
X5750001D02*
D03*
X5699999D02*
D03*
X5650002D02*
D03*
X5599999D02*
D03*
X5550002D02*
D03*
X5499999D02*
D03*
X5450002D02*
D03*
X5400000D02*
D03*
X5350002D02*
D03*
X5300000D02*
D03*
X5250002D02*
D03*
X5200000D02*
D03*
X5150003D02*
D03*
X5100000D02*
D03*
X5050003D02*
D03*
X5000000D02*
D03*
X4950003D02*
D03*
X4900001D02*
D03*
X4850003D02*
D03*
X4800001D02*
D03*
X4749998D02*
D03*
X4700001D02*
D03*
X4649999D02*
D03*
X4600001D02*
D03*
X4549999D02*
D03*
X4500001D02*
D03*
X4449999D02*
D03*
X4400002D02*
D03*
X4349999D02*
D03*
X4300002D02*
D03*
X4249999D02*
D03*
X4200002D02*
D03*
X4150000D02*
D03*
X4100002D02*
D03*
X4050000D02*
D03*
X4000002D02*
D03*
X3950000D02*
D03*
X3900003D02*
D03*
X3850000D02*
D03*
X3800003D02*
D03*
X3750000D02*
D03*
X3700003D02*
D03*
X3650001D02*
D03*
X3600003D02*
D03*
D13*
X6097006Y6332382D02*
D03*
X5843006D02*
D03*
X6097006Y6078382D02*
D03*
X5843006D02*
D03*
X5335006Y6332382D02*
D03*
Y6078382D02*
D03*
X4827006Y6332382D02*
D03*
Y6078382D02*
D03*
X4065006Y6332382D02*
D03*
Y6078382D02*
D03*
X3811006Y6332382D02*
D03*
Y6078382D02*
D03*
X3303006Y6332382D02*
D03*
X3557006Y6078382D02*
D03*
Y6332382D02*
D03*
X4319006Y6078382D02*
D03*
Y6332382D02*
D03*
X4573006Y6078382D02*
D03*
Y6332382D02*
D03*
X5081006Y6078382D02*
D03*
Y6332382D02*
D03*
X5589006Y6078382D02*
D03*
Y6332382D02*
D03*
X6097001Y5232374D02*
D03*
X5843001D02*
D03*
X6097001Y4978374D02*
D03*
X5843001D02*
D03*
X5335001Y5232374D02*
D03*
Y4978374D02*
D03*
X4827001Y5232374D02*
D03*
Y4978374D02*
D03*
X4065001Y5232374D02*
D03*
Y4978374D02*
D03*
X3811001Y5232374D02*
D03*
Y4978374D02*
D03*
X3303001Y5232374D02*
D03*
X3557001Y4978374D02*
D03*
Y5232374D02*
D03*
X4319001Y4978374D02*
D03*
Y5232374D02*
D03*
X4573001Y4978374D02*
D03*
Y5232374D02*
D03*
X5081001Y4978374D02*
D03*
Y5232374D02*
D03*
X5589001Y4978374D02*
D03*
Y5232374D02*
D03*
D14*
X3303006Y6078382D02*
D03*
X3303001Y4978374D02*
D03*
D15*
X2750000Y7000000D02*
D03*
X6750000D02*
D03*
Y2750000D02*
D03*
X2750000D02*
D03*
%TF.MD5,3acd3fce813a5f49a5611ffb8c6c6489*%
M02*
