%TF.GenerationSoftware,Altium Limited,Altium Designer,23.2.1 (34)*%
G04 Layer_Color=2752767*
%FSLAX45Y45*%
%MOMM*%
%TF.SameCoordinates,7D16A08E-AD26-414A-B05A-F9FA4662990C*%
%TF.FilePolarity,Positive*%
%TF.FileFunction,Drawing*%
%TF.Part,Single*%
G01*
G75*
%TA.AperFunction,NonConductor*%
%ADD38C,0.12700*%
%ADD39C,0.16933*%
D38*
X6046206Y6281582D02*
Y6383182D01*
X6147806D01*
Y6281582D01*
X6046206D01*
X5792206D02*
Y6383182D01*
X5893806D01*
Y6281582D01*
X5792206D01*
X6046206Y6027582D02*
Y6129182D01*
X6147806D01*
Y6027582D01*
X6046206D01*
X5792206D02*
Y6129182D01*
X5893806D01*
Y6027582D01*
X5792206D01*
X5284206Y6281582D02*
Y6383182D01*
X5385806D01*
Y6281582D01*
X5284206D01*
Y6027582D02*
Y6129182D01*
X5385806D01*
Y6027582D01*
X5284206D01*
X4776206Y6281582D02*
Y6383182D01*
X4877806D01*
Y6281582D01*
X4776206D01*
Y6027582D02*
Y6129182D01*
X4877806D01*
Y6027582D01*
X4776206D01*
X4014206Y6281582D02*
Y6383182D01*
X4115806D01*
Y6281582D01*
X4014206D01*
Y6027582D02*
Y6129182D01*
X4115806D01*
Y6027582D01*
X4014206D01*
X3760206Y6281582D02*
Y6383182D01*
X3861806D01*
Y6281582D01*
X3760206D01*
Y6027582D02*
Y6129182D01*
X3861806D01*
Y6027582D01*
X3760206D01*
X3252206D02*
Y6129182D01*
X3353806D01*
Y6027582D01*
X3252206D01*
Y6281582D02*
Y6383182D01*
X3353806D01*
Y6281582D01*
X3252206D01*
X3506206Y6027582D02*
Y6129182D01*
X3607806D01*
Y6027582D01*
X3506206D01*
Y6281582D02*
Y6383182D01*
X3607806D01*
Y6281582D01*
X3506206D01*
X4268206Y6027582D02*
Y6129182D01*
X4369806D01*
Y6027582D01*
X4268206D01*
Y6281582D02*
Y6383182D01*
X4369806D01*
Y6281582D01*
X4268206D01*
X4522206Y6027582D02*
Y6129182D01*
X4623806D01*
Y6027582D01*
X4522206D01*
Y6281582D02*
Y6383182D01*
X4623806D01*
Y6281582D01*
X4522206D01*
X5030206Y6027582D02*
Y6129182D01*
X5131806D01*
Y6027582D01*
X5030206D01*
Y6281582D02*
Y6383182D01*
X5131806D01*
Y6281582D01*
X5030206D01*
X5538206Y6027582D02*
Y6129182D01*
X5639806D01*
Y6027582D01*
X5538206D01*
Y6281582D02*
Y6383182D01*
X5639806D01*
Y6281582D01*
X5538206D01*
X6046201Y5181574D02*
Y5283174D01*
X6147801D01*
Y5181574D01*
X6046201D01*
X5792201D02*
Y5283174D01*
X5893801D01*
Y5181574D01*
X5792201D01*
X6046201Y4927574D02*
Y5029174D01*
X6147801D01*
Y4927574D01*
X6046201D01*
X5792201D02*
Y5029174D01*
X5893801D01*
Y4927574D01*
X5792201D01*
X5284201Y5181574D02*
Y5283174D01*
X5385801D01*
Y5181574D01*
X5284201D01*
Y4927574D02*
Y5029174D01*
X5385801D01*
Y4927574D01*
X5284201D01*
X4776201Y5181574D02*
Y5283174D01*
X4877801D01*
Y5181574D01*
X4776201D01*
Y4927574D02*
Y5029174D01*
X4877801D01*
Y4927574D01*
X4776201D01*
X4014201Y5181574D02*
Y5283174D01*
X4115801D01*
Y5181574D01*
X4014201D01*
Y4927574D02*
Y5029174D01*
X4115801D01*
Y4927574D01*
X4014201D01*
X3760201Y5181574D02*
Y5283174D01*
X3861801D01*
Y5181574D01*
X3760201D01*
Y4927574D02*
Y5029174D01*
X3861801D01*
Y4927574D01*
X3760201D01*
X3252201D02*
Y5029174D01*
X3353801D01*
Y4927574D01*
X3252201D01*
Y5181574D02*
Y5283174D01*
X3353801D01*
Y5181574D01*
X3252201D01*
X3506201Y4927574D02*
Y5029174D01*
X3607801D01*
Y4927574D01*
X3506201D01*
Y5181574D02*
Y5283174D01*
X3607801D01*
Y5181574D01*
X3506201D01*
X4268201Y4927574D02*
Y5029174D01*
X4369801D01*
Y4927574D01*
X4268201D01*
Y5181574D02*
Y5283174D01*
X4369801D01*
Y5181574D01*
X4268201D01*
X4522201Y4927574D02*
Y5029174D01*
X4623801D01*
Y4927574D01*
X4522201D01*
Y5181574D02*
Y5283174D01*
X4623801D01*
Y5181574D01*
X4522201D01*
X5030201Y4927574D02*
Y5029174D01*
X5131801D01*
Y4927574D01*
X5030201D01*
Y5181574D02*
Y5283174D01*
X5131801D01*
Y5181574D01*
X5030201D01*
X5538201Y4927574D02*
Y5029174D01*
X5639801D01*
Y4927574D01*
X5538201D01*
Y5181574D02*
Y5283174D01*
X5639801D01*
Y5181574D01*
X5538201D01*
X2750000Y6949200D02*
X2775400Y6974600D01*
X2800800D01*
X2775400Y7000000D01*
X2800800Y7025400D01*
X2775400D01*
X2750000Y7050800D01*
X2724600Y7025400D01*
X2699200D01*
X2724600Y7000000D01*
X2699200Y6974600D01*
X2724600D01*
X2750000Y6949200D01*
X6750000D02*
X6775400Y6974600D01*
X6800800D01*
X6775400Y7000000D01*
X6800800Y7025400D01*
X6775400D01*
X6750000Y7050800D01*
X6724600Y7025400D01*
X6699200D01*
X6724600Y7000000D01*
X6699200Y6974600D01*
X6724600D01*
X6750000Y6949200D01*
Y2699200D02*
X6775400Y2724600D01*
X6800800D01*
X6775400Y2750000D01*
X6800800Y2775400D01*
X6775400D01*
X6750000Y2800800D01*
X6724600Y2775400D01*
X6699200D01*
X6724600Y2750000D01*
X6699200Y2724600D01*
X6724600D01*
X6750000Y2699200D01*
X2750000D02*
X2775400Y2724600D01*
X2800800D01*
X2775400Y2750000D01*
X2800800Y2775400D01*
X2775400D01*
X2750000Y2800800D01*
X2724600Y2775400D01*
X2699200D01*
X2724600Y2750000D01*
X2699200Y2724600D01*
X2724600D01*
X2750000Y2699200D01*
D39*
X5465801Y4442480D02*
G03*
X5465801Y4442480I-50800J0D01*
G01*
X4840800Y4250000D02*
G03*
X4840800Y4250000I-50800J0D01*
G01*
X5012031Y3954150D02*
G03*
X5012031Y3954150I-50800J0D01*
G01*
X5190800Y4600000D02*
G03*
X5190800Y4600000I-50800J0D01*
G01*
X5000800Y4540000D02*
G03*
X5000800Y4540000I-50800J0D01*
G01*
X4160801Y4265380D02*
G03*
X4160801Y4265380I-50800J0D01*
G01*
X4210801Y4635380D02*
G03*
X4210801Y4635380I-50800J0D01*
G01*
X4550801Y3905380D02*
G03*
X4550801Y3905380I-50800J0D01*
G01*
X4610801Y4035380D02*
G03*
X4610801Y4035380I-50800J0D01*
G01*
X5118445Y4089282D02*
G03*
X5118445Y4089282I-50800J0D01*
G01*
X5000801Y3435380D02*
G03*
X5000801Y3435380I-50800J0D01*
G01*
X4937400Y3538240D02*
G03*
X4937400Y3538240I-50800J0D01*
G01*
X4752701Y3543320D02*
G03*
X4752701Y3543320I-50800J0D01*
G01*
X4860801Y3435380D02*
G03*
X4860801Y3435380I-50800J0D01*
G01*
X5849473Y3988080D02*
G03*
X5849473Y3988080I-50800J0D01*
G01*
X6020801Y3925380D02*
G03*
X6020801Y3925380I-50800J0D01*
G01*
X4671456Y3906540D02*
G03*
X4671456Y3906540I-50800J0D01*
G01*
X5953481Y3738900D02*
G03*
X5953481Y3738900I-50800J0D01*
G01*
X3736061Y3368060D02*
G03*
X3736061Y3368060I-50800J0D01*
G01*
X5920461Y5798840D02*
G03*
X5920461Y5798840I-50800J0D01*
G01*
X5580101Y3581420D02*
G03*
X5580101Y3581420I-50800J0D01*
G01*
X5650799Y3474740D02*
G03*
X5650799Y3474740I-50800J0D01*
G01*
X5270221Y4770140D02*
G03*
X5270221Y4770140I-50800J0D01*
G01*
X4579341Y3543762D02*
G03*
X4579341Y3543762I-50800J0D01*
G01*
X5587721Y4193083D02*
G03*
X5587721Y4193083I-50800J0D01*
G01*
%TF.MD5,949c9534b3499e8babcb75f8ce81d2d6*%
M02*
