%TF.GenerationSoftware,Altium Limited,Altium Designer,23.2.1 (34)*%
G04 Layer_Color=128*
%FSLAX45Y45*%
%MOMM*%
%TF.SameCoordinates,7D16A08E-AD26-414A-B05A-F9FA4662990C*%
%TF.FilePolarity,Positive*%
%TF.FileFunction,Drillmap*%
%TF.Part,Single*%
G01*
G75*
%TA.AperFunction,NonConductor*%
%ADD38C,0.12700*%
D38*
X6042006Y6332382D02*
X6152006D01*
X6097006Y6277382D02*
Y6387382D01*
X5788006Y6332382D02*
X5898006D01*
X5843006Y6277382D02*
Y6387382D01*
X6042006Y6078382D02*
X6152006D01*
X6097006Y6023382D02*
Y6133382D01*
X5788006Y6078382D02*
X5898006D01*
X5843006Y6023382D02*
Y6133382D01*
X5280006Y6332382D02*
X5390006D01*
X5335006Y6277382D02*
Y6387382D01*
X5280006Y6078382D02*
X5390006D01*
X5335006Y6023382D02*
Y6133382D01*
X4772006Y6332382D02*
X4882006D01*
X4827006Y6277382D02*
Y6387382D01*
X4772006Y6078382D02*
X4882006D01*
X4827006Y6023382D02*
Y6133382D01*
X4010006Y6332382D02*
X4120006D01*
X4065006Y6277382D02*
Y6387382D01*
X4010006Y6078382D02*
X4120006D01*
X4065006Y6023382D02*
Y6133382D01*
X3756006Y6332382D02*
X3866006D01*
X3811006Y6277382D02*
Y6387382D01*
X3756006Y6078382D02*
X3866006D01*
X3811006Y6023382D02*
Y6133382D01*
X3248006Y6078382D02*
X3358006D01*
X3303006Y6023382D02*
Y6133382D01*
X3248006Y6332382D02*
X3358006D01*
X3303006Y6277382D02*
Y6387382D01*
X3502006Y6078382D02*
X3612006D01*
X3557006Y6023382D02*
Y6133382D01*
X3502006Y6332382D02*
X3612006D01*
X3557006Y6277382D02*
Y6387382D01*
X4264006Y6078382D02*
X4374006D01*
X4319006Y6023382D02*
Y6133382D01*
X4264006Y6332382D02*
X4374006D01*
X4319006Y6277382D02*
Y6387382D01*
X4518006Y6078382D02*
X4628006D01*
X4573006Y6023382D02*
Y6133382D01*
X4518006Y6332382D02*
X4628006D01*
X4573006Y6277382D02*
Y6387382D01*
X5026006Y6078382D02*
X5136006D01*
X5081006Y6023382D02*
Y6133382D01*
X5026006Y6332382D02*
X5136006D01*
X5081006Y6277382D02*
Y6387382D01*
X5534006Y6078382D02*
X5644006D01*
X5589006Y6023382D02*
Y6133382D01*
X5534006Y6332382D02*
X5644006D01*
X5589006Y6277382D02*
Y6387382D01*
X6042001Y5232374D02*
X6152001D01*
X6097001Y5177374D02*
Y5287374D01*
X5788001Y5232374D02*
X5898001D01*
X5843001Y5177374D02*
Y5287374D01*
X6042001Y4978374D02*
X6152001D01*
X6097001Y4923374D02*
Y5033374D01*
X5788001Y4978374D02*
X5898001D01*
X5843001Y4923374D02*
Y5033374D01*
X5280001Y5232374D02*
X5390001D01*
X5335001Y5177374D02*
Y5287374D01*
X5280001Y4978374D02*
X5390001D01*
X5335001Y4923374D02*
Y5033374D01*
X4772001Y5232374D02*
X4882001D01*
X4827001Y5177374D02*
Y5287374D01*
X4772001Y4978374D02*
X4882001D01*
X4827001Y4923374D02*
Y5033374D01*
X4010001Y5232374D02*
X4120001D01*
X4065001Y5177374D02*
Y5287374D01*
X4010001Y4978374D02*
X4120001D01*
X4065001Y4923374D02*
Y5033374D01*
X3756001Y5232374D02*
X3866001D01*
X3811001Y5177374D02*
Y5287374D01*
X3756001Y4978374D02*
X3866001D01*
X3811001Y4923374D02*
Y5033374D01*
X3248001Y4978374D02*
X3358001D01*
X3303001Y4923374D02*
Y5033374D01*
X3248001Y5232374D02*
X3358001D01*
X3303001Y5177374D02*
Y5287374D01*
X3502001Y4978374D02*
X3612001D01*
X3557001Y4923374D02*
Y5033374D01*
X3502001Y5232374D02*
X3612001D01*
X3557001Y5177374D02*
Y5287374D01*
X4264001Y4978374D02*
X4374001D01*
X4319001Y4923374D02*
Y5033374D01*
X4264001Y5232374D02*
X4374001D01*
X4319001Y5177374D02*
Y5287374D01*
X4518001Y4978374D02*
X4628001D01*
X4573001Y4923374D02*
Y5033374D01*
X4518001Y5232374D02*
X4628001D01*
X4573001Y5177374D02*
Y5287374D01*
X5026001Y4978374D02*
X5136001D01*
X5081001Y4923374D02*
Y5033374D01*
X5026001Y5232374D02*
X5136001D01*
X5081001Y5177374D02*
Y5287374D01*
X5534001Y4978374D02*
X5644001D01*
X5589001Y4923374D02*
Y5033374D01*
X5534001Y5232374D02*
X5644001D01*
X5589001Y5177374D02*
Y5287374D01*
X2650000Y7000000D02*
X2850000D01*
X2750000Y6900000D02*
Y7100000D01*
X6650000Y7000000D02*
X6850000D01*
X6750000Y6900000D02*
Y7100000D01*
X6650000Y2750000D02*
X6850000D01*
X6750000Y2650000D02*
Y2850000D01*
X2650000Y2750000D02*
X2850000D01*
X2750000Y2650000D02*
Y2850000D01*
X5400001Y4442480D02*
X5430001D01*
X5415001Y4427480D02*
Y4457480D01*
X4775000Y4250000D02*
X4805000D01*
X4790000Y4235000D02*
Y4265000D01*
X4946231Y3954150D02*
X4976231D01*
X4961231Y3939150D02*
Y3969150D01*
X5125000Y4600000D02*
X5155000D01*
X5140000Y4585000D02*
Y4615000D01*
X4935000Y4540000D02*
X4965000D01*
X4950000Y4525000D02*
Y4555000D01*
X4095001Y4265380D02*
X4125001D01*
X4110001Y4250380D02*
Y4280380D01*
X4145001Y4635380D02*
X4175001D01*
X4160001Y4620380D02*
Y4650380D01*
X4485001Y3905380D02*
X4515001D01*
X4500001Y3890380D02*
Y3920380D01*
X4545001Y4035380D02*
X4575001D01*
X4560001Y4020380D02*
Y4050380D01*
X5052645Y4089282D02*
X5082645D01*
X5067645Y4074282D02*
Y4104282D01*
X4935001Y3435380D02*
X4965001D01*
X4950001Y3420380D02*
Y3450380D01*
X4871600Y3538240D02*
X4901600D01*
X4886600Y3523240D02*
Y3553240D01*
X4686901Y3543320D02*
X4716901D01*
X4701901Y3528320D02*
Y3558320D01*
X4795001Y3435380D02*
X4825001D01*
X4810001Y3420380D02*
Y3450380D01*
X5783673Y3988080D02*
X5813673D01*
X5798673Y3973080D02*
Y4003080D01*
X5955001Y3925380D02*
X5985001D01*
X5970001Y3910380D02*
Y3940380D01*
X4605657Y3906540D02*
X4635656D01*
X4620656Y3891540D02*
Y3921540D01*
X5887681Y3738900D02*
X5917681D01*
X5902681Y3723900D02*
Y3753900D01*
X3670261Y3368060D02*
X3700261D01*
X3685261Y3353060D02*
Y3383060D01*
X5854661Y5798840D02*
X5884661D01*
X5869661Y5783840D02*
Y5813840D01*
X5514301Y3581420D02*
X5544301D01*
X5529301Y3566420D02*
Y3596420D01*
X5584999Y3474740D02*
X5614999D01*
X5599999Y3459740D02*
Y3489740D01*
X5204421Y4770140D02*
X5234421D01*
X5219421Y4755140D02*
Y4785140D01*
X4513541Y3543762D02*
X4543541D01*
X4528541Y3528762D02*
Y3558762D01*
X5521921Y4193083D02*
X5551921D01*
X5536921Y4178083D02*
Y4208083D01*
%TF.MD5,c6f07e005bba2c9214ba1d8052759bc4*%
M02*
