%TF.GenerationSoftware,Altium Limited,Altium Designer,23.2.1 (34)*%
G04 Layer_Physical_Order=1*
G04 Layer_Color=255*
%FSLAX45Y45*%
%MOMM*%
%TF.SameCoordinates,7D16A08E-AD26-414A-B05A-F9FA4662990C*%
%TF.FilePolarity,Positive*%
%TF.FileFunction,Copper,L1,Top,Signal*%
%TF.Part,Single*%
G01*
G75*
%TA.AperFunction,SMDPad,CuDef*%
%ADD10R,1.00000X1.00000*%
%ADD11R,0.30000X1.20000*%
%TA.AperFunction,Conductor*%
%ADD12C,0.25400*%
%TA.AperFunction,ComponentPad*%
%ADD13C,1.65000*%
%ADD14R,1.65000X1.65000*%
%TA.AperFunction,ViaPad*%
%ADD15C,2.50000*%
%ADD16C,0.60000*%
G36*
X3510001Y3592880D02*
X3350001D01*
Y3512880D01*
X3270001D01*
Y3352880D01*
X3510001D01*
Y3592880D01*
D02*
G37*
G36*
X5890001D02*
X6050001D01*
Y3512880D01*
X6130001D01*
Y3352880D01*
X5890001D01*
Y3592880D01*
D02*
G37*
D10*
X5999998Y3467882D02*
D03*
X3399999D02*
D03*
D11*
X5799999Y3742878D02*
D03*
X5750001D02*
D03*
X5699999D02*
D03*
X5650002D02*
D03*
X5599999D02*
D03*
X5550002D02*
D03*
X5499999D02*
D03*
X5450002D02*
D03*
X5400000D02*
D03*
X5350002D02*
D03*
X5300000D02*
D03*
X5250002D02*
D03*
X5200000D02*
D03*
X5150003D02*
D03*
X5100000D02*
D03*
X5050003D02*
D03*
X5000000D02*
D03*
X4950003D02*
D03*
X4900001D02*
D03*
X4850003D02*
D03*
X4800001D02*
D03*
X4749998D02*
D03*
X4700001D02*
D03*
X4649999D02*
D03*
X4600001D02*
D03*
X4549999D02*
D03*
X4500001D02*
D03*
X4449999D02*
D03*
X4400002D02*
D03*
X4349999D02*
D03*
X4300002D02*
D03*
X4249999D02*
D03*
X4200002D02*
D03*
X4150000D02*
D03*
X4100002D02*
D03*
X4050000D02*
D03*
X4000002D02*
D03*
X3950000D02*
D03*
X3900003D02*
D03*
X3850000D02*
D03*
X3800003D02*
D03*
X3750000D02*
D03*
X3700003D02*
D03*
X3650001D02*
D03*
X3600003D02*
D03*
D12*
X4035121Y3630000D02*
X4050000Y3644879D01*
X3530001Y3630000D02*
X4035121D01*
X3187421Y3972580D02*
X3530001Y3630000D01*
X4050000Y3644879D02*
Y3742878D01*
X4965421Y6081709D02*
Y6216797D01*
Y5976640D02*
Y6081709D01*
X5470000Y5614260D02*
X5704561Y5379699D01*
X5470000Y6213376D02*
X5589006Y6332382D01*
X5470000Y5614260D02*
Y6213376D01*
X5210000Y6207376D02*
X5335006Y6332382D01*
X5210000Y5770161D02*
Y6207376D01*
Y5770161D02*
X5458435Y5521726D01*
X5415001Y3915659D02*
Y4442480D01*
X5350002Y3850660D02*
X5415001Y3915659D01*
X4790000Y4244521D02*
X5023931Y4010590D01*
X4790000Y4244521D02*
Y4250000D01*
X5023931Y3928179D02*
Y4010590D01*
X4850003Y3845382D02*
X4958771Y3954150D01*
X4948503Y3879677D02*
X4975429D01*
X5067645Y4089282D02*
X5069331Y4087597D01*
X4900001Y3831175D02*
X4948503Y3879677D01*
X5050003Y3742878D02*
Y3890046D01*
X4958771Y3954150D02*
X4961231D01*
X4975429Y3879677D02*
X5023931Y3928179D01*
X5050003Y3890046D02*
X5069331Y3909374D01*
Y4087597D01*
X5140000Y4600000D02*
X5250002Y4489997D01*
Y3742878D02*
Y4489997D01*
X5051981Y4602700D02*
X5219421Y4770140D01*
X4924029Y4602700D02*
X5051981D01*
X4346501Y3841799D02*
Y4153582D01*
X5196205Y4930661D02*
Y5049962D01*
X4848385Y4527056D02*
X4924029Y4602700D01*
X4391901Y4134777D02*
X4905224Y4648100D01*
X5004727D01*
X4391901Y3860604D02*
Y4134777D01*
X4959044Y4693500D02*
X5196205Y4930661D01*
X5150003Y3742878D02*
Y4339997D01*
X4886419Y4693500D02*
X4959044D01*
X4346501Y4153582D02*
X4886419Y4693500D01*
X4950000Y4540000D02*
X5150003Y4339997D01*
X5004727Y4648100D02*
X5335001Y4978374D01*
X4848385Y4412435D02*
Y4527056D01*
X4542560Y5492561D02*
X4880852D01*
X4442369Y5392369D02*
X4542560Y5492561D01*
X4442369Y4938816D02*
Y5392369D01*
X4880852Y5492561D02*
X4942561Y5430852D01*
Y5093934D02*
Y5430852D01*
X4688205Y4817770D02*
Y5093579D01*
X4827001Y4978374D02*
X4942561Y5093934D01*
X4688205Y5093579D02*
X4827001Y5232374D01*
X4263501Y4393066D02*
X4688205Y4817770D01*
X4222701Y4719148D02*
X4442369Y4938816D01*
X4100001Y3913316D02*
X4100002Y3913315D01*
X4103381Y4258760D02*
X4110001Y4265380D01*
X4103381Y4236581D02*
Y4258760D01*
X4100001Y3913316D02*
Y4233201D01*
X4103381Y4236581D01*
X4218101Y4220604D02*
Y4411871D01*
X4263501Y4201799D02*
Y4393066D01*
X4200002Y3742878D02*
Y4202505D01*
X5081001Y4955094D02*
Y4978374D01*
X4160001Y4533257D02*
X4172701Y4520557D01*
Y4239409D02*
Y4520557D01*
X4249999Y4188297D02*
X4263501Y4201799D01*
X4200002Y4202505D02*
X4218101Y4220604D01*
X4249999Y3742878D02*
Y4188297D01*
X4150000Y3742878D02*
Y4216708D01*
X4218101Y4411871D02*
X4222701Y4416471D01*
X4150000Y4216708D02*
X4172701Y4239409D01*
X4300002Y3742878D02*
Y4174095D01*
X5081001Y4955094D01*
X3900003Y3742878D02*
Y3920699D01*
X3797199Y3895093D02*
X3800003Y3892289D01*
X3797199Y4473652D02*
X3811001Y4487455D01*
X3842599Y3913898D02*
Y4454847D01*
Y3913898D02*
X3850000Y3906496D01*
X3887999Y4432470D02*
X3971601Y4516073D01*
X3800003Y3742878D02*
Y3892289D01*
X3933399Y3951508D02*
X3950000Y3934907D01*
X3842599Y4454847D02*
X3926201Y4538449D01*
X4000002Y3742878D02*
Y3949109D01*
X3811001Y4487455D02*
Y4978374D01*
X3971601Y4884974D02*
X4065001Y4978374D01*
X3811001Y5232374D02*
X3926201Y5117174D01*
X3933399Y3951508D02*
Y4413665D01*
X3971601Y4516073D02*
Y4884974D01*
X3850000Y3742878D02*
Y3906496D01*
X3797199Y3895093D02*
Y4473652D01*
X3950000Y3742878D02*
Y3934907D01*
X3887999Y3932703D02*
Y4432470D01*
X3978798Y4394860D02*
X4086901Y4502963D01*
X3978798Y3970313D02*
X4000002Y3949109D01*
X3933399Y4413665D02*
X4024198Y4504465D01*
Y4735291D01*
X3887999Y3932703D02*
X3900003Y3920699D01*
X3978798Y3970313D02*
Y4394860D01*
X3926201Y4538449D02*
Y5117174D01*
X3750000Y3742878D02*
Y4864120D01*
X3695421Y4918700D02*
X3750000Y4864120D01*
X4024198Y4735291D02*
X4180561Y4891654D01*
X4086901Y4658700D02*
X4319001Y4890800D01*
X4086901Y4502963D02*
Y4658700D01*
X4160001Y4533257D02*
Y4635380D01*
X4222701Y4416471D02*
Y4719148D01*
X4100002Y3742878D02*
Y3913315D01*
X4500001Y3742878D02*
Y3905380D01*
X4500001Y3905380D02*
X4500001Y3905380D01*
X4437301Y3879409D02*
X4449999Y3866711D01*
X4437301Y4001351D02*
X4848385Y4412435D01*
X4391901Y3860604D02*
X4400002Y3852503D01*
X4346501Y3841799D02*
X4349999Y3838301D01*
X4500001Y3742878D02*
X4500001Y3742878D01*
X4437301Y3879409D02*
Y4001351D01*
X4449999Y3742878D02*
Y3866711D01*
X4349999Y3742878D02*
Y3838301D01*
X4400002Y3742878D02*
Y3852503D01*
X4560001Y4035380D02*
X4635601D01*
X4800001Y3870980D01*
X4900001Y3742878D02*
Y3831175D01*
X4850003Y3742878D02*
Y3845382D01*
X4950001Y3435380D02*
Y3511259D01*
X4971903Y3533161D01*
Y3599678D01*
X4818165Y3584074D02*
X4836126D01*
X4881960Y3538240D01*
X4886600D01*
X4749998Y3652240D02*
X4818165Y3584074D01*
X4639201Y3517349D02*
X4721170Y3435380D01*
X4639201Y3590217D02*
X4649999Y3601015D01*
X4700001Y3545220D02*
Y3742878D01*
X4649999Y3601015D02*
Y3742878D01*
X4721170Y3435380D02*
X4810001D01*
X4639201Y3517349D02*
Y3590217D01*
X4700001Y3545220D02*
X4701901Y3543320D01*
X5957611Y4308156D02*
Y4669180D01*
X5798673Y3995731D02*
X5843001Y4040059D01*
X5902681Y3738900D02*
X6032701Y3868920D01*
X5970001Y3925380D02*
Y4295767D01*
X5798673Y3988080D02*
Y3995731D01*
X6032701Y3868920D02*
Y4638540D01*
X5957611Y4308156D02*
X5970001Y4295767D01*
X6032701Y4638540D02*
X6257605Y4863444D01*
X5843001Y4040059D02*
Y4978374D01*
X5895061Y4864120D02*
X5958205Y4927264D01*
X5895061Y3921780D02*
Y4864120D01*
X5821401Y3848120D02*
X5895061Y3921780D01*
X5957611Y4669180D02*
X6212205Y4923775D01*
X5777941Y3848120D02*
X5821401D01*
X4180561Y4891654D02*
Y5116815D01*
X4065001Y5232374D02*
X4180561Y5116815D01*
X3187421Y3972580D02*
Y5293380D01*
X3253461Y5359420D01*
X4191955D01*
X4319001Y5232374D01*
X5174397Y5071770D02*
X5196205Y5049962D01*
X5174397Y5071770D02*
Y5138979D01*
X5081001Y5232374D02*
X5174397Y5138979D01*
X4549999Y3835882D02*
X4620656Y3906540D01*
X4549999Y3742878D02*
Y3835882D01*
X6097001Y5232374D02*
X6257605Y5071770D01*
Y4863444D02*
Y5071770D01*
X4749998Y3652240D02*
Y3742878D01*
X4950003Y3621577D02*
X4971903Y3599678D01*
X4950003Y3621577D02*
Y3742878D01*
X5350002D02*
Y3850660D01*
X4800001Y3742878D02*
Y3870980D01*
X3685261Y3368060D02*
X4832396D01*
X4872238Y3328218D01*
X4962881D01*
X5044161Y3409498D01*
Y3593140D01*
X5000000Y3637300D02*
X5044161Y3593140D01*
X5000000Y3637300D02*
Y3742878D01*
X4202308Y6195080D02*
X4319006Y6078382D01*
X4018001Y6195080D02*
X4202308D01*
X3949421Y6126500D02*
X4018001Y6195080D01*
X3949421Y5801380D02*
Y6126500D01*
X3842741Y5694700D02*
X3949421Y5801380D01*
X3395701Y5694700D02*
X3842741D01*
X3095981Y5394980D02*
X3395701Y5694700D01*
X3095981Y3261380D02*
Y5394980D01*
Y3261380D02*
X3197581Y3159780D01*
X5098400D01*
X5200000Y3261380D01*
Y3742878D01*
X4573006Y6078382D02*
X4711421Y6216797D01*
Y6410980D01*
X4863821Y6563380D01*
X6298921D01*
X6393805Y6468496D01*
Y3305464D02*
Y6468496D01*
X6243041Y3154700D02*
X6393805Y3305464D01*
X5406680Y3154700D02*
X6243041D01*
X5300000Y3261380D02*
X5406680Y3154700D01*
X5300000Y3261380D02*
Y3742878D01*
X5869661Y5798840D02*
X6303005Y5365496D01*
Y5243261D02*
Y5365496D01*
Y5243261D02*
X6348405Y5197861D01*
Y3506444D02*
Y5197861D01*
X6123661Y3281700D02*
X6348405Y3506444D01*
X5582880Y3281700D02*
X6123661D01*
X5400000Y3464580D02*
X5582880Y3281700D01*
X5400000Y3464580D02*
Y3742878D01*
X5499999Y3610722D02*
Y3742878D01*
Y3610722D02*
X5529301Y3581420D01*
X5599999Y3474740D02*
Y3742878D01*
X4065006Y5699780D02*
Y6078382D01*
X3770366Y5405140D02*
X4065006Y5699780D01*
X3202661Y5405140D02*
X3770366D01*
X3141701Y5344180D02*
X3202661Y5405140D01*
X3141701Y3403620D02*
Y5344180D01*
Y3403620D02*
X3262503Y3282818D01*
X5078298D01*
X5100000Y3304519D01*
Y3742878D01*
X5843001Y5232374D02*
X5981797Y5093579D01*
X6158007D01*
X6212205Y5039380D01*
Y4923775D02*
Y5039380D01*
X4600001Y3615222D02*
Y3742878D01*
X4528541Y3543762D02*
X4600001Y3615222D01*
X5450002Y3742878D02*
Y3827241D01*
X5486121Y3863360D01*
Y4142283D01*
X5536921Y4193083D01*
X5550002Y3742878D02*
Y4080759D01*
X5599623Y4130380D01*
Y4773478D01*
X5450561Y4922540D02*
X5599623Y4773478D01*
X5450561Y4922540D02*
Y5042855D01*
X5389601Y5103815D02*
X5450561Y5042855D01*
X5233152Y5103815D02*
X5389601D01*
X5219797Y5117170D02*
X5233152Y5103815D01*
X5219797Y5117170D02*
Y5261889D01*
X5134107Y5347579D02*
X5219797Y5261889D01*
X5134107Y5347579D02*
Y5807954D01*
X4965421Y5976640D02*
X5134107Y5807954D01*
X4965421Y6216797D02*
X5081006Y6332382D01*
X3700003Y3742878D02*
Y4835372D01*
X3557001Y4978374D02*
X3700003Y4835372D01*
X3557001Y5232374D02*
X3695421Y5093955D01*
Y4918700D02*
Y5093955D01*
X3650001Y3742878D02*
Y4693640D01*
X3431261Y4912380D02*
X3650001Y4693640D01*
X3431261Y4912380D02*
Y5104115D01*
X3303001Y5232374D02*
X3431261Y5104115D01*
X3600003Y3742878D02*
Y4535668D01*
X3303001Y4832670D02*
X3600003Y4535668D01*
X3303001Y4832670D02*
Y4978374D01*
X5589006Y5951819D02*
Y6078382D01*
Y5951819D02*
X6257605Y5283220D01*
Y5197861D02*
Y5283220D01*
Y5197861D02*
X6303005Y5152461D01*
Y4634524D02*
Y5152461D01*
X6085561Y4417080D02*
X6303005Y4634524D01*
X6085561Y3769380D02*
Y4417080D01*
X5943321Y3627140D02*
X6085561Y3769380D01*
X5740639Y3627140D02*
X5943321D01*
X5699999Y3667780D02*
X5740639Y3627140D01*
X5699999Y3667780D02*
Y3742878D01*
X5750001D02*
Y3820180D01*
X5777941Y3848120D01*
X5958205Y4927264D02*
Y5039380D01*
X5902325Y5095260D02*
X5958205Y5039380D01*
X5796001Y5095260D02*
X5902325D01*
X5704561Y5186700D02*
X5796001Y5095260D01*
X5704561Y5186700D02*
Y5379699D01*
X5650002Y3742878D02*
Y4723201D01*
X5704561Y4777760D01*
Y5052080D01*
X5643601Y5113040D02*
X5704561Y5052080D01*
X5545410Y5113040D02*
X5643601D01*
X5458435Y5200015D02*
X5545410Y5113040D01*
X5458435Y5200015D02*
Y5521726D01*
X4319001Y4890800D02*
Y4978374D01*
D13*
X6097006Y6332382D02*
D03*
X5843006D02*
D03*
X6097006Y6078382D02*
D03*
X5843006D02*
D03*
X5335006Y6332382D02*
D03*
Y6078382D02*
D03*
X4827006Y6332382D02*
D03*
Y6078382D02*
D03*
X4065006Y6332382D02*
D03*
Y6078382D02*
D03*
X3811006Y6332382D02*
D03*
Y6078382D02*
D03*
X3303006Y6332382D02*
D03*
X3557006Y6078382D02*
D03*
Y6332382D02*
D03*
X4319006Y6078382D02*
D03*
Y6332382D02*
D03*
X4573006Y6078382D02*
D03*
Y6332382D02*
D03*
X5081006Y6078382D02*
D03*
Y6332382D02*
D03*
X5589006Y6078382D02*
D03*
Y6332382D02*
D03*
X6097001Y5232374D02*
D03*
X5843001D02*
D03*
X6097001Y4978374D02*
D03*
X5843001D02*
D03*
X5335001Y5232374D02*
D03*
Y4978374D02*
D03*
X4827001Y5232374D02*
D03*
Y4978374D02*
D03*
X4065001Y5232374D02*
D03*
Y4978374D02*
D03*
X3811001Y5232374D02*
D03*
Y4978374D02*
D03*
X3303001Y5232374D02*
D03*
X3557001Y4978374D02*
D03*
Y5232374D02*
D03*
X4319001Y4978374D02*
D03*
Y5232374D02*
D03*
X4573001Y4978374D02*
D03*
Y5232374D02*
D03*
X5081001Y4978374D02*
D03*
Y5232374D02*
D03*
X5589001Y4978374D02*
D03*
Y5232374D02*
D03*
D14*
X3303006Y6078382D02*
D03*
X3303001Y4978374D02*
D03*
D15*
X2750000Y7000000D02*
D03*
X6750000D02*
D03*
Y2750000D02*
D03*
X2750000D02*
D03*
D16*
X5415001Y4442480D02*
D03*
X4790000Y4250000D02*
D03*
X4961231Y3954150D02*
D03*
X5140000Y4600000D02*
D03*
X4950000Y4540000D02*
D03*
X4110001Y4265380D02*
D03*
X4160001Y4635380D02*
D03*
X4500001Y3905380D02*
D03*
X4560001Y4035380D02*
D03*
X5067645Y4089282D02*
D03*
X4950001Y3435380D02*
D03*
X4886600Y3538240D02*
D03*
X4701901Y3543320D02*
D03*
X4810001Y3435380D02*
D03*
X5798673Y3988080D02*
D03*
X5970001Y3925380D02*
D03*
X4620656Y3906540D02*
D03*
X5902681Y3738900D02*
D03*
X3685261Y3368060D02*
D03*
X5869661Y5798840D02*
D03*
X5529301Y3581420D02*
D03*
X5599999Y3474740D02*
D03*
X5219421Y4770140D02*
D03*
X4528541Y3543762D02*
D03*
X5536921Y4193083D02*
D03*
%TF.MD5,6c4075400a4b9b3d324f187c0dbb8518*%
M02*
