%TF.GenerationSoftware,Altium Limited,Altium Designer,23.2.1 (34)*%
G04 Layer_Color=65535*
%FSLAX45Y45*%
%MOMM*%
%TF.SameCoordinates,7D16A08E-AD26-414A-B05A-F9FA4662990C*%
%TF.FilePolarity,Positive*%
%TF.FileFunction,Legend,Top*%
%TF.Part,Single*%
G01*
G75*
%TA.AperFunction,NonConductor*%
%ADD21C,0.25000*%
%ADD22C,0.20000*%
%ADD23C,0.15240*%
%ADD24C,0.25400*%
D21*
X3612501Y3857880D02*
G03*
X3612501Y3857880I-12500J0D01*
G01*
D22*
X6239002Y5943879D02*
Y6466880D01*
X3161005D02*
X6239002D01*
X3161005Y5943879D02*
X6239002D01*
X3161005D02*
Y6466880D01*
X6238997Y4843876D02*
Y5366878D01*
X3161000D02*
X6238997D01*
X3161000Y4843876D02*
X6238997D01*
X3161000D02*
Y5366878D01*
X3359999Y3712880D02*
X3545002D01*
X5855000D02*
X6040003D01*
Y3297880D02*
X6100003D01*
X6100008Y3212886D01*
X3300009D02*
X6100008D01*
X3299999Y3297880D02*
X3300009Y3212886D01*
X3299999Y3297880D02*
X3359999D01*
X6040003Y3632880D02*
Y3712880D01*
Y3297880D02*
Y3312881D01*
X3359999Y3632880D02*
Y3712880D01*
Y3297880D02*
Y3312881D01*
X3270000Y6570000D02*
Y6669968D01*
X3319984D01*
X3336645Y6653306D01*
Y6619984D01*
X3319984Y6603323D01*
X3270000D01*
X3303323D02*
X3336645Y6570000D01*
X3436613Y6669968D02*
X3369968D01*
Y6570000D01*
X3436613D01*
X3369968Y6619984D02*
X3403290D01*
X3469936Y6570000D02*
X3503258D01*
X3486597D01*
Y6669968D01*
X3469936Y6653306D01*
X3553242D02*
X3569903Y6669968D01*
X3603226D01*
X3619887Y6653306D01*
Y6636645D01*
X3603226Y6619984D01*
X3586565D01*
X3603226D01*
X3619887Y6603323D01*
Y6586661D01*
X3603226Y6570000D01*
X3569903D01*
X3553242Y6586661D01*
X3753178Y6619984D02*
X3819823D01*
X3953113Y6570000D02*
Y6669968D01*
X4003097D01*
X4019758Y6653306D01*
Y6619984D01*
X4003097Y6603323D01*
X3953113D01*
X3986436D02*
X4019758Y6570000D01*
X4119726Y6669968D02*
X4053081D01*
Y6570000D01*
X4119726D01*
X4053081Y6619984D02*
X4086404D01*
X4219694Y6570000D02*
X4153049D01*
X4219694Y6636645D01*
Y6653306D01*
X4203033Y6669968D01*
X4169710D01*
X4153049Y6653306D01*
X4319662Y6570000D02*
X4253017D01*
X4319662Y6636645D01*
Y6653306D01*
X4303001Y6669968D01*
X4269678D01*
X4253017Y6653306D01*
X3270000Y5470000D02*
Y5569968D01*
X3319984D01*
X3336645Y5553306D01*
Y5519984D01*
X3319984Y5503322D01*
X3270000D01*
X3303323D02*
X3336645Y5470000D01*
X3436613Y5569968D02*
X3369968D01*
Y5470000D01*
X3436613D01*
X3369968Y5519984D02*
X3403290D01*
X3469936Y5470000D02*
X3503258D01*
X3486597D01*
Y5569968D01*
X3469936Y5553306D01*
X3653210Y5519984D02*
X3719855D01*
X3853145Y5470000D02*
Y5569968D01*
X3903129D01*
X3919790Y5553306D01*
Y5519984D01*
X3903129Y5503322D01*
X3853145D01*
X3886468D02*
X3919790Y5470000D01*
X4019758Y5569968D02*
X3953113D01*
Y5470000D01*
X4019758D01*
X3953113Y5519984D02*
X3986436D01*
X4053081Y5470000D02*
X4086404D01*
X4069742D01*
Y5569968D01*
X4053081Y5553306D01*
X4203032Y5470000D02*
X4136387D01*
X4203032Y5536645D01*
Y5553306D01*
X4186371Y5569968D01*
X4153049D01*
X4136387Y5553306D01*
X3820000Y6953322D02*
Y7053290D01*
X3869984D01*
X3886645Y7036629D01*
Y7003306D01*
X3869984Y6986645D01*
X3820000D01*
X3919968Y6953322D02*
X3953290D01*
X3936629D01*
Y7019967D01*
X3919968D01*
X4003274Y6953322D02*
Y7019967D01*
X4053258D01*
X4069919Y7003306D01*
Y6953322D01*
X4269855Y7053290D02*
X4203210D01*
Y6953322D01*
X4269855D01*
X4203210Y7003306D02*
X4236532D01*
X4303178Y7019967D02*
X4369823Y6953322D01*
X4336500Y6986645D01*
X4369823Y7019967D01*
X4303178Y6953322D01*
X4403145Y6920000D02*
Y7019967D01*
X4453129D01*
X4469790Y7003306D01*
Y6969984D01*
X4453129Y6953322D01*
X4403145D01*
X4519775Y7019967D02*
X4553097D01*
X4569758Y7003306D01*
Y6953322D01*
X4519775D01*
X4503113Y6969984D01*
X4519775Y6986645D01*
X4569758D01*
X4603081Y6953322D02*
Y7019967D01*
X4653065D01*
X4669726Y7003306D01*
Y6953322D01*
X4703049D02*
X4753033D01*
X4769694Y6969984D01*
X4753033Y6986645D01*
X4719710D01*
X4703049Y7003306D01*
X4719710Y7019967D01*
X4769694D01*
X4803017Y6953322D02*
X4836339D01*
X4819678D01*
Y7019967D01*
X4803017D01*
X4902984Y6953322D02*
X4936307D01*
X4952968Y6969984D01*
Y7003306D01*
X4936307Y7019967D01*
X4902984D01*
X4886323Y7003306D01*
Y6969984D01*
X4902984Y6953322D01*
X4986291D02*
Y7019967D01*
X5036275D01*
X5052936Y7003306D01*
Y6953322D01*
X5186226Y7053290D02*
Y6953322D01*
X5236210D01*
X5252871Y6969984D01*
Y6986645D01*
X5236210Y7003306D01*
X5186226D01*
X5236210D01*
X5252871Y7019967D01*
Y7036629D01*
X5236210Y7053290D01*
X5186226D01*
X5302856Y6953322D02*
X5336178D01*
X5352839Y6969984D01*
Y7003306D01*
X5336178Y7019967D01*
X5302856D01*
X5286194Y7003306D01*
Y6969984D01*
X5302856Y6953322D01*
X5402823Y7019967D02*
X5436146D01*
X5452807Y7003306D01*
Y6953322D01*
X5402823D01*
X5386162Y6969984D01*
X5402823Y6986645D01*
X5452807D01*
X5486130Y7019967D02*
Y6953322D01*
Y6986645D01*
X5502791Y7003306D01*
X5519452Y7019967D01*
X5536114D01*
X5652743Y7053290D02*
Y6953322D01*
X5602759D01*
X5586098Y6969984D01*
Y7003306D01*
X5602759Y7019967D01*
X5652743D01*
X3270000Y5869968D02*
Y5770000D01*
X3303323Y5803322D01*
X3336645Y5770000D01*
Y5869968D01*
X3436613D02*
X3369968D01*
Y5770000D01*
X3436613D01*
X3369968Y5819984D02*
X3403290D01*
X3469936Y5770000D02*
X3503258D01*
X3486597D01*
Y5869968D01*
X3469936Y5853306D01*
X3553242D02*
X3569903Y5869968D01*
X3603226D01*
X3619887Y5853306D01*
Y5836645D01*
X3603226Y5819984D01*
X3586565D01*
X3603226D01*
X3619887Y5803322D01*
Y5786661D01*
X3603226Y5770000D01*
X3569903D01*
X3553242Y5786661D01*
X3753178Y5819984D02*
X3819823D01*
X3953113Y5869968D02*
Y5770000D01*
X3986436Y5803322D01*
X4019758Y5770000D01*
Y5869968D01*
X4119726D02*
X4053081D01*
Y5770000D01*
X4119726D01*
X4053081Y5819984D02*
X4086404D01*
X4219694Y5770000D02*
X4153049D01*
X4219694Y5836645D01*
Y5853306D01*
X4203033Y5869968D01*
X4169710D01*
X4153049Y5853306D01*
X4319662Y5770000D02*
X4253017D01*
X4319662Y5836645D01*
Y5853306D01*
X4303001Y5869968D01*
X4269678D01*
X4253017Y5853306D01*
X3270000Y4769968D02*
Y4670000D01*
X3303323Y4703323D01*
X3336645Y4670000D01*
Y4769968D01*
X3436613D02*
X3369968D01*
Y4670000D01*
X3436613D01*
X3369968Y4719984D02*
X3403290D01*
X3469936Y4670000D02*
X3503258D01*
X3486597D01*
Y4769968D01*
X3469936Y4753306D01*
X3653210Y4719984D02*
X3719855D01*
X3853145Y4769968D02*
Y4670000D01*
X3886468Y4703323D01*
X3919790Y4670000D01*
Y4769968D01*
X4019758D02*
X3953113D01*
Y4670000D01*
X4019758D01*
X3953113Y4719984D02*
X3986436D01*
X4053081Y4670000D02*
X4086404D01*
X4069742D01*
Y4769968D01*
X4053081Y4753306D01*
X4203032Y4670000D02*
X4136387D01*
X4203032Y4736645D01*
Y4753306D01*
X4186371Y4769968D01*
X4153049D01*
X4136387Y4753306D01*
X6713371Y3386645D02*
X6696709Y3369984D01*
Y3336662D01*
X6713371Y3320000D01*
X6780016D01*
X6796677Y3336662D01*
Y3369984D01*
X6780016Y3386645D01*
X6730032Y3419968D02*
X6796677D01*
X6763355D01*
X6746693Y3436629D01*
X6730032Y3453291D01*
Y3469952D01*
X6796677Y3536597D02*
Y3569920D01*
X6780016Y3586581D01*
X6746693D01*
X6730032Y3569920D01*
Y3536597D01*
X6746693Y3519936D01*
X6780016D01*
X6796677Y3536597D01*
Y3619904D02*
X6730032D01*
Y3669888D01*
X6746693Y3686549D01*
X6796677D01*
Y3719871D02*
Y3753194D01*
Y3736533D01*
X6730032D01*
Y3719871D01*
X6796677Y3803178D02*
X6730032D01*
Y3853162D01*
X6746693Y3869823D01*
X6796677D01*
X6696709Y4003113D02*
X6796677D01*
Y4069758D01*
X6730032Y4119743D02*
Y4153065D01*
X6746693Y4169726D01*
X6796677D01*
Y4119743D01*
X6780016Y4103081D01*
X6763355Y4119743D01*
Y4169726D01*
X6696709Y4203049D02*
X6796677D01*
Y4253033D01*
X6780016Y4269694D01*
X6763355D01*
X6746693D01*
X6730032Y4253033D01*
Y4203049D01*
X6813339Y4319678D02*
X6796677Y4336339D01*
X6780016D01*
Y4319678D01*
X6796677D01*
Y4336339D01*
X6813339Y4319678D01*
X6830000Y4303017D01*
X6696709Y4502952D02*
X6780016D01*
X6796677Y4519614D01*
Y4552936D01*
X6780016Y4569597D01*
X6696709D01*
X6796677Y4602920D02*
X6730032D01*
Y4652904D01*
X6746693Y4669565D01*
X6796677D01*
Y4702888D02*
Y4736210D01*
Y4719549D01*
X6730032D01*
Y4702888D01*
Y4786194D02*
X6796677Y4819517D01*
X6730032Y4852839D01*
X6796677Y4936146D02*
Y4902824D01*
X6780016Y4886162D01*
X6746693D01*
X6730032Y4902824D01*
Y4936146D01*
X6746693Y4952807D01*
X6763355D01*
Y4886162D01*
X6730032Y4986130D02*
X6796677D01*
X6763355D01*
X6746693Y5002791D01*
X6730032Y5019452D01*
Y5036114D01*
X6796677Y5086098D02*
Y5136082D01*
X6780016Y5152743D01*
X6763355Y5136082D01*
Y5102759D01*
X6746693Y5086098D01*
X6730032Y5102759D01*
Y5152743D01*
X6796677Y5186066D02*
Y5219388D01*
Y5202727D01*
X6730032D01*
Y5186066D01*
X6713371Y5286033D02*
X6730032D01*
Y5269372D01*
Y5302694D01*
Y5286033D01*
X6780016D01*
X6796677Y5302694D01*
X6730032Y5352678D02*
X6780016D01*
X6796677Y5369340D01*
Y5419323D01*
X6813339D01*
X6830000Y5402662D01*
Y5386001D01*
X6796677Y5419323D02*
X6730032D01*
X6796677Y5569275D02*
Y5602598D01*
X6780016Y5619259D01*
X6746693D01*
X6730032Y5602598D01*
Y5569275D01*
X6746693Y5552614D01*
X6780016D01*
X6796677Y5569275D01*
Y5669243D02*
X6713371D01*
X6746693D01*
Y5652582D01*
Y5685904D01*
Y5669243D01*
X6713371D01*
X6696709Y5685904D01*
X6713371Y5902501D02*
X6696709Y5885840D01*
Y5852517D01*
X6713371Y5835856D01*
X6780016D01*
X6796677Y5852517D01*
Y5885840D01*
X6780016Y5902501D01*
X6746693D01*
Y5869179D01*
X6796677Y5935824D02*
Y5969146D01*
Y5952485D01*
X6696709D01*
Y5935824D01*
X6730032Y6035792D02*
Y6069114D01*
X6746693Y6085775D01*
X6796677D01*
Y6035792D01*
X6780016Y6019130D01*
X6763355Y6035792D01*
Y6085775D01*
X6796677Y6119098D02*
Y6169082D01*
X6780016Y6185743D01*
X6763355Y6169082D01*
Y6135759D01*
X6746693Y6119098D01*
X6730032Y6135759D01*
Y6185743D01*
X6830000Y6252388D02*
Y6269050D01*
X6813339Y6285711D01*
X6730032D01*
Y6235727D01*
X6746693Y6219066D01*
X6780016D01*
X6796677Y6235727D01*
Y6285711D01*
Y6335695D02*
Y6369017D01*
X6780016Y6385679D01*
X6746693D01*
X6730032Y6369017D01*
Y6335695D01*
X6746693Y6319034D01*
X6780016D01*
X6796677Y6335695D01*
X6730032Y6419001D02*
X6780016D01*
X6796677Y6435663D01*
X6780016Y6452324D01*
X6796677Y6468985D01*
X6780016Y6485646D01*
X6730032D01*
D23*
X6457712Y6295380D02*
X6390001D01*
X6457712Y6363091D01*
Y6380019D01*
X6440784Y6396947D01*
X6406929D01*
X6390001Y6380019D01*
X6542352Y6295380D02*
Y6396947D01*
X6491568Y6346164D01*
X6559279D01*
X6447712Y6025380D02*
X6380001D01*
X6447712Y6093091D01*
Y6110020D01*
X6430784Y6126947D01*
X6396929D01*
X6380001Y6110020D01*
X6481568D02*
X6498496Y6126947D01*
X6532352D01*
X6549280Y6110020D01*
Y6093091D01*
X6532352Y6076164D01*
X6515424D01*
X6532352D01*
X6549280Y6059236D01*
Y6042308D01*
X6532352Y6025380D01*
X6498496D01*
X6481568Y6042308D01*
X3057712Y6285380D02*
X2990001D01*
X3057712Y6353091D01*
Y6370020D01*
X3040784Y6386947D01*
X3006929D01*
X2990001Y6370020D01*
X3010001Y6035380D02*
X3043856D01*
X3026929D01*
Y6136947D01*
X3010001Y6120020D01*
X6437712Y5185380D02*
X6370001D01*
X6437712Y5253091D01*
Y5270019D01*
X6420784Y5286947D01*
X6386929D01*
X6370001Y5270019D01*
X6522352Y5185380D02*
Y5286947D01*
X6471568Y5236164D01*
X6539280D01*
X6437712Y4925380D02*
X6370001D01*
X6437712Y4993091D01*
Y5010019D01*
X6420784Y5026947D01*
X6386929D01*
X6370001Y5010019D01*
X6471568D02*
X6488496Y5026947D01*
X6522352D01*
X6539280Y5010019D01*
Y4993091D01*
X6522352Y4976164D01*
X6505424D01*
X6522352D01*
X6539280Y4959236D01*
Y4942308D01*
X6522352Y4925380D01*
X6488496D01*
X6471568Y4942308D01*
X3057712Y5205380D02*
X2990001D01*
X3057712Y5273091D01*
Y5290019D01*
X3040784Y5306947D01*
X3006929D01*
X2990001Y5290019D01*
X3010001Y4925380D02*
X3043856D01*
X3026929D01*
Y5026947D01*
X3010001Y5010019D01*
D24*
X2773041Y6573825D02*
Y6726175D01*
X2849217D01*
X2874608Y6700783D01*
Y6650000D01*
X2849217Y6624608D01*
X2773041D01*
X3026959Y6573825D02*
X2925392D01*
X3026959Y6675392D01*
Y6700783D01*
X3001567Y6726175D01*
X2950784D01*
X2925392Y6700783D01*
X2748433Y5473825D02*
Y5626175D01*
X2824608D01*
X2850000Y5600784D01*
Y5550000D01*
X2824608Y5524608D01*
X2748433D01*
X2900784Y5473825D02*
X2951567D01*
X2926176D01*
Y5626175D01*
X2900784Y5600784D01*
X3385508Y4112231D02*
X3334724D01*
X3360116D01*
Y3985272D01*
X3334724Y3959880D01*
X3309333D01*
X3283941Y3985272D01*
X3436292Y3959880D02*
X3487075D01*
X3461683D01*
Y4112231D01*
X3436292Y4086839D01*
%TF.MD5,c588242b9dc7e06bd92d5b04b13ebd70*%
M02*
