%TF.GenerationSoftware,Altium Limited,Altium Designer,23.2.1 (34)*%
G04 Layer_Color=16711935*
%FSLAX45Y45*%
%MOMM*%
%TF.SameCoordinates,7D16A08E-AD26-414A-B05A-F9FA4662990C*%
%TF.FilePolarity,Negative*%
%TF.FileFunction,Soldermask,Bot*%
%TF.Part,Single*%
G01*
G75*
%TA.AperFunction,ComponentPad*%
%ADD17C,1.85320*%
%ADD18R,1.85320X1.85320*%
%TA.AperFunction,ViaPad*%
%ADD19C,2.70320*%
%ADD20C,0.80320*%
D17*
X6097006Y6332382D02*
D03*
X5843006D02*
D03*
X6097006Y6078382D02*
D03*
X5843006D02*
D03*
X5335006Y6332382D02*
D03*
Y6078382D02*
D03*
X4827006Y6332382D02*
D03*
Y6078382D02*
D03*
X4065006Y6332382D02*
D03*
Y6078382D02*
D03*
X3811006Y6332382D02*
D03*
Y6078382D02*
D03*
X3303006Y6332382D02*
D03*
X3557006Y6078382D02*
D03*
Y6332382D02*
D03*
X4319006Y6078382D02*
D03*
Y6332382D02*
D03*
X4573006Y6078382D02*
D03*
Y6332382D02*
D03*
X5081006Y6078382D02*
D03*
Y6332382D02*
D03*
X5589006Y6078382D02*
D03*
Y6332382D02*
D03*
X6097001Y5232374D02*
D03*
X5843001D02*
D03*
X6097001Y4978374D02*
D03*
X5843001D02*
D03*
X5335001Y5232374D02*
D03*
Y4978374D02*
D03*
X4827001Y5232374D02*
D03*
Y4978374D02*
D03*
X4065001Y5232374D02*
D03*
Y4978374D02*
D03*
X3811001Y5232374D02*
D03*
Y4978374D02*
D03*
X3303001Y5232374D02*
D03*
X3557001Y4978374D02*
D03*
Y5232374D02*
D03*
X4319001Y4978374D02*
D03*
Y5232374D02*
D03*
X4573001Y4978374D02*
D03*
Y5232374D02*
D03*
X5081001Y4978374D02*
D03*
Y5232374D02*
D03*
X5589001Y4978374D02*
D03*
Y5232374D02*
D03*
D18*
X3303006Y6078382D02*
D03*
X3303001Y4978374D02*
D03*
D19*
X2750000Y7000000D02*
D03*
X6750000D02*
D03*
Y2750000D02*
D03*
X2750000D02*
D03*
D20*
X5415001Y4442480D02*
D03*
X4790000Y4250000D02*
D03*
X4961231Y3954150D02*
D03*
X5140000Y4600000D02*
D03*
X4950000Y4540000D02*
D03*
X4110001Y4265380D02*
D03*
X4160001Y4635380D02*
D03*
X4500001Y3905380D02*
D03*
X4560001Y4035380D02*
D03*
X5067645Y4089282D02*
D03*
X4950001Y3435380D02*
D03*
X4886600Y3538240D02*
D03*
X4701901Y3543320D02*
D03*
X4810001Y3435380D02*
D03*
X5798673Y3988080D02*
D03*
X5970001Y3925380D02*
D03*
X4620656Y3906540D02*
D03*
X5902681Y3738900D02*
D03*
X3685261Y3368060D02*
D03*
X5869661Y5798840D02*
D03*
X5529301Y3581420D02*
D03*
X5599999Y3474740D02*
D03*
X5219421Y4770140D02*
D03*
X4528541Y3543762D02*
D03*
X5536921Y4193083D02*
D03*
%TF.MD5,03a308c62e2641672a4a045b531eb582*%
M02*
